<svg width="19" height="19" viewBox="0 0 19 19" fill="none" xmlns="http://www.w3.org/2000/svg">
<path d="M5.69168 2.33343H16.6667C17.5917 2.33343 18.3333 3.07509 18.3333 4.00009V14.0001C18.3333 14.2834 18.2667 14.5501 18.1417 14.7834L16.6667 13.3084V9.00009H12.3583L9.02501 5.66676H16.6667V4.00009H7.35835L5.69168 2.33343ZM17.075 18.4251L14.3083 15.6668H3.33335C2.40835 15.6668 1.66668 14.9251 1.66668 14.0001L1.67501 4.00009C1.67501 3.71676 1.74168 3.45009 1.86668 3.22509L0.575012 1.92509L1.75001 0.750092L18.25 17.2501L17.075 18.4251V18.4251ZM3.33335 4.69176V5.66676H4.30835L3.33335 4.69176ZM12.6417 14.0001L7.64168 9.00009H3.33335V14.0001H12.6417Z" fill="#005CEE"/>
</svg>
