<svg width="17" height="18" viewBox="0 0 17 18" fill="none" xmlns="http://www.w3.org/2000/svg">
<path d="M8 0.666687L3.41667 8.16669H12.5833L8 0.666687ZM8 3.86669L9.60833 6.50002H6.38333L8 3.86669ZM12.5833 9.83335C10.5083 9.83335 8.83333 11.5084 8.83333 13.5834C8.83333 15.6584 10.5083 17.3334 12.5833 17.3334C14.6583 17.3334 16.3333 15.6584 16.3333 13.5834C16.3333 11.5084 14.6583 9.83335 12.5833 9.83335ZM12.5833 15.6667C12.0308 15.6667 11.5009 15.4472 11.1102 15.0565C10.7195 14.6658 10.5 14.1359 10.5 13.5834C10.5 13.0308 10.7195 12.5009 11.1102 12.1102C11.5009 11.7195 12.0308 11.5 12.5833 11.5C13.1359 11.5 13.6658 11.7195 14.0565 12.1102C14.4472 12.5009 14.6667 13.0308 14.6667 13.5834C14.6667 14.1359 14.4472 14.6658 14.0565 15.0565C13.6658 15.4472 13.1359 15.6667 12.5833 15.6667ZM0.5 16.9167H7.16667V10.25H0.5V16.9167ZM2.16667 11.9167H5.5V15.25H2.16667V11.9167Z" fill="#005CEE"/>
</svg>
