<svg width="14" height="20" viewBox="0 0 14 20" fill="none" xmlns="http://www.w3.org/2000/svg">
<path d="M6.99998 15.8334C6.08331 15.8334 5.33331 16.5834 5.33331 17.5001C5.33331 18.4168 6.08331 19.1668 6.99998 19.1668C7.91665 19.1668 8.66665 18.4168 8.66665 17.5001C8.66665 16.5834 7.91665 15.8334 6.99998 15.8334ZM1.99998 0.833435C1.08331 0.833435 0.333313 1.58343 0.333313 2.5001C0.333313 3.41677 1.08331 4.16677 1.99998 4.16677C2.91665 4.16677 3.66665 3.41677 3.66665 2.5001C3.66665 1.58343 2.91665 0.833435 1.99998 0.833435ZM1.99998 5.83343C1.08331 5.83343 0.333313 6.58343 0.333313 7.5001C0.333313 8.41677 1.08331 9.16677 1.99998 9.16677C2.91665 9.16677 3.66665 8.41677 3.66665 7.5001C3.66665 6.58343 2.91665 5.83343 1.99998 5.83343ZM1.99998 10.8334C1.08331 10.8334 0.333313 11.5834 0.333313 12.5001C0.333313 13.4168 1.08331 14.1668 1.99998 14.1668C2.91665 14.1668 3.66665 13.4168 3.66665 12.5001C3.66665 11.5834 2.91665 10.8334 1.99998 10.8334ZM12 4.16677C12.9166 4.16677 13.6666 3.41677 13.6666 2.5001C13.6666 1.58343 12.9166 0.833435 12 0.833435C11.0833 0.833435 10.3333 1.58343 10.3333 2.5001C10.3333 3.41677 11.0833 4.16677 12 4.16677ZM6.99998 10.8334C6.08331 10.8334 5.33331 11.5834 5.33331 12.5001C5.33331 13.4168 6.08331 14.1668 6.99998 14.1668C7.91665 14.1668 8.66665 13.4168 8.66665 12.5001C8.66665 11.5834 7.91665 10.8334 6.99998 10.8334ZM12 10.8334C11.0833 10.8334 10.3333 11.5834 10.3333 12.5001C10.3333 13.4168 11.0833 14.1668 12 14.1668C12.9166 14.1668 13.6666 13.4168 13.6666 12.5001C13.6666 11.5834 12.9166 10.8334 12 10.8334ZM12 5.83343C11.0833 5.83343 10.3333 6.58343 10.3333 7.5001C10.3333 8.41677 11.0833 9.16677 12 9.16677C12.9166 9.16677 13.6666 8.41677 13.6666 7.5001C13.6666 6.58343 12.9166 5.83343 12 5.83343ZM6.99998 5.83343C6.08331 5.83343 5.33331 6.58343 5.33331 7.5001C5.33331 8.41677 6.08331 9.16677 6.99998 9.16677C7.91665 9.16677 8.66665 8.41677 8.66665 7.5001C8.66665 6.58343 7.91665 5.83343 6.99998 5.83343ZM6.99998 0.833435C6.08331 0.833435 5.33331 1.58343 5.33331 2.5001C5.33331 3.41677 6.08331 4.16677 6.99998 4.16677C7.91665 4.16677 8.66665 3.41677 8.66665 2.5001C8.66665 1.58343 7.91665 0.833435 6.99998 0.833435Z" fill="#005CEE"/>
</svg>
