<svg width="28" height="31" viewBox="0 0 28 31" fill="none" xmlns="http://www.w3.org/2000/svg">
<path d="M22.7151 4.205C22.5951 4.205 22.4751 4.175 22.3701 4.115C19.4901 2.63 17.0001 2 14.0151 2C11.0451 2 8.22511 2.705 5.66011 4.115C5.30011 4.31 4.85011 4.175 4.64011 3.815C4.54656 3.63957 4.52557 3.43443 4.58167 3.2437C4.63777 3.05296 4.76647 2.89185 4.94011 2.795C7.73011 1.28 10.7901 0.5 14.0151 0.5C17.2101 0.5 20.0001 1.205 23.0601 2.78C23.4351 2.975 23.5701 3.425 23.3751 3.785C23.3158 3.91004 23.2224 4.0158 23.1056 4.0901C22.9889 4.1644 22.8535 4.20423 22.7151 4.205V4.205ZM1.25011 12.08C1.11184 12.0813 0.975916 12.0443 0.857415 11.973C0.738915 11.9017 0.642467 11.7991 0.578772 11.6763C0.515077 11.5536 0.486623 11.4156 0.496567 11.2777C0.506511 11.1398 0.554464 11.0073 0.635107 10.895C2.12011 8.795 4.01011 7.145 6.26011 5.99C10.9701 3.56 17.0001 3.545 21.7251 5.975C23.9751 7.13 25.8651 8.765 27.3501 10.85C27.4077 10.9306 27.4487 11.0218 27.4708 11.1184C27.4929 11.2149 27.4957 11.3149 27.4789 11.4125C27.4622 11.5101 27.4263 11.6035 27.3733 11.6871C27.3203 11.7708 27.2512 11.8432 27.1701 11.9C26.8251 12.14 26.3601 12.065 26.1201 11.72C24.8065 9.86057 23.0617 8.34734 21.0351 7.31C16.7301 5.105 11.2251 5.105 6.93511 7.325C4.89511 8.375 3.18511 9.875 1.83511 11.765C1.71511 11.975 1.49011 12.08 1.25011 12.08V12.08ZM10.6251 30.185C10.5267 30.1862 10.4292 30.1668 10.3388 30.128C10.2484 30.0893 10.1671 30.0321 10.1001 29.96C8.79511 28.655 8.09011 27.815 7.08511 26C6.05011 24.155 5.51011 21.905 5.51011 19.49C5.51011 15.035 9.32011 11.405 14.0001 11.405C18.6801 11.405 22.4901 15.035 22.4901 19.49C22.4901 19.91 22.1601 20.24 21.7401 20.24C21.3201 20.24 20.9901 19.91 20.9901 19.49C20.9901 15.86 17.8551 12.905 14.0001 12.905C10.1451 12.905 7.01011 15.86 7.01011 19.49C7.01011 21.65 7.49011 23.645 8.40511 25.265C9.36511 26.99 10.0251 27.725 11.1801 28.895C11.4651 29.195 11.4651 29.66 11.1801 29.96C11.0151 30.11 10.8201 30.185 10.6251 30.185ZM21.3801 27.41C19.5951 27.41 18.0201 26.96 16.7301 26.075C14.4951 24.56 13.1601 22.1 13.1601 19.49C13.1601 19.07 13.4901 18.74 13.9101 18.74C14.3301 18.74 14.6601 19.07 14.6601 19.49C14.6601 21.605 15.7401 23.6 17.5701 24.83C18.6351 25.55 19.8801 25.895 21.3801 25.895C21.7401 25.895 22.3401 25.85 22.9401 25.745C23.3451 25.67 23.7351 25.94 23.8101 26.36C23.8851 26.765 23.6151 27.155 23.1951 27.23C22.3401 27.395 21.5901 27.41 21.3801 27.41V27.41ZM18.3651 30.5C18.3051 30.5 18.2301 30.485 18.1701 30.47C15.7851 29.81 14.2251 28.925 12.5901 27.32C11.554 26.297 10.7325 25.0775 10.1736 23.733C9.61464 22.3885 9.32959 20.946 9.33511 19.49C9.33511 17.06 11.4051 15.08 13.9551 15.08C16.5051 15.08 18.5751 17.06 18.5751 19.49C18.5751 21.095 19.9701 22.4 21.6951 22.4C23.4201 22.4 24.8151 21.095 24.8151 19.49C24.8151 13.835 19.9401 9.245 13.9401 9.245C9.68011 9.245 5.78011 11.615 4.02511 15.29C3.44011 16.505 3.14011 17.93 3.14011 19.49C3.14011 20.66 3.24511 22.505 4.14511 24.905C4.29511 25.295 4.10011 25.73 3.71011 25.865C3.32011 26.015 2.88511 25.805 2.75011 25.43C2.02732 23.533 1.65625 21.5201 1.65511 19.49C1.65511 17.69 2.00011 16.055 2.67511 14.63C4.67011 10.445 9.09511 7.73 13.9401 7.73C20.7651 7.73 26.3151 12.995 26.3151 19.475C26.3151 21.905 24.2451 23.885 21.6951 23.885C19.1451 23.885 17.0751 21.905 17.0751 19.475C17.0751 17.87 15.6801 16.565 13.9551 16.565C12.2301 16.565 10.8351 17.87 10.8351 19.475C10.8351 22.04 11.8251 24.44 13.6401 26.24C15.0651 27.65 16.4301 28.43 18.5451 29.015C18.9501 29.12 19.1751 29.54 19.0701 29.93C18.9951 30.275 18.6801 30.5 18.3651 30.5V30.5Z" fill="black"/>
</svg>
