<svg width="14" height="19" viewBox="0 0 14 19" fill="none" xmlns="http://www.w3.org/2000/svg">
<path d="M12 6.66665H11.1667V4.99998C11.1667 2.69998 9.30001 0.833313 7.00001 0.833313C4.70001 0.833313 2.83334 2.69998 2.83334 4.99998V6.66665H2.00001C1.08334 6.66665 0.333344 7.41665 0.333344 8.33331V16.6666C0.333344 17.5833 1.08334 18.3333 2.00001 18.3333H12C12.9167 18.3333 13.6667 17.5833 13.6667 16.6666V8.33331C13.6667 7.41665 12.9167 6.66665 12 6.66665ZM4.50001 4.99998C4.50001 3.61665 5.61668 2.49998 7.00001 2.49998C8.38334 2.49998 9.50001 3.61665 9.50001 4.99998V6.66665H4.50001V4.99998ZM12 16.6666H2.00001V8.33331H12V16.6666ZM7.00001 14.1666C7.91668 14.1666 8.66668 13.4166 8.66668 12.5C8.66668 11.5833 7.91668 10.8333 7.00001 10.8333C6.08334 10.8333 5.33334 11.5833 5.33334 12.5C5.33334 13.4166 6.08334 14.1666 7.00001 14.1666Z" fill="#005CEE"/>
</svg>
