<svg width="49" height="49" viewBox="0 0 49 49" fill="none" xmlns="http://www.w3.org/2000/svg">
<rect x="0.0874023" width="48.8252" height="48.8252" rx="12" fill="#005CEE"/>
<path d="M34.1285 36.6879C34.3666 36.9261 34.7537 36.9269 34.9821 36.6794C36.9797 34.5153 38.3108 31.8149 38.8073 28.903C39.3381 25.7905 38.8893 22.5899 37.5228 19.7435C36.1563 16.8971 33.9396 14.5452 31.1789 13.0128C28.4182 11.4804 25.2498 10.8432 22.1114 11.189C18.9729 11.5349 16.0193 12.8468 13.6585 14.9436C11.2978 17.0403 9.64642 19.8185 8.93255 22.8942C8.21867 25.9699 8.47753 29.1913 9.67336 32.1136C10.7921 34.8474 12.6792 37.1932 15.1002 38.8704C15.377 39.0622 15.7546 38.9771 15.9351 38.6929C16.1157 38.4086 16.0307 38.0329 15.7546 37.8402C13.5466 36.299 11.825 34.1518 10.802 31.6517C9.70181 28.9633 9.46366 25.9995 10.1204 23.1699C10.7772 20.3402 12.2965 17.7843 14.4683 15.8553C16.6402 13.9263 19.3575 12.7193 22.2449 12.4011C25.1323 12.0829 28.0473 12.6692 30.5871 14.079C33.1269 15.4888 35.1663 17.6525 36.4234 20.2713C37.6806 22.89 38.0936 25.8345 37.6052 28.698C37.1511 31.3608 35.9385 33.8314 34.119 35.8164C33.8915 36.0646 33.8904 36.4498 34.1285 36.6879Z" fill="white"/>
<path d="M34.5483 36.2365C34.766 36.4542 35.1199 36.4549 35.3287 36.2287C37.5431 33.8298 38.8493 30.724 39.0081 27.4513C39.1758 23.9927 38.0501 20.5955 35.8501 17.9215C33.6501 15.2475 30.5335 13.4882 27.1073 12.9865C23.6812 12.4847 20.191 13.2763 17.3166 15.2071C14.4422 17.138 12.3895 20.0697 11.5585 23.4312C10.7274 26.7926 11.1775 30.3431 12.821 33.3909C14.4645 36.4387 17.1838 38.7655 20.449 39.918C23.5387 41.0086 26.9078 40.9738 29.966 39.831C30.2544 39.7233 30.3876 39.3954 30.2684 39.1115C30.1491 38.8276 29.8227 38.6954 29.534 38.8022C26.7316 39.8383 23.6486 39.865 20.8201 38.8667C17.8161 37.8063 15.3144 35.6657 13.8023 32.8617C12.2903 30.0577 11.8762 26.7913 12.6408 23.6987C13.4054 20.6062 15.2938 17.909 17.9383 16.1326C20.5827 14.3563 23.7937 13.628 26.9458 14.0896C30.0978 14.5513 32.9651 16.1698 34.9891 18.6298C37.0131 21.0899 38.0488 24.2154 37.8944 27.3973C37.7491 30.3932 36.5586 33.2372 34.5396 35.4397C34.3316 35.6666 34.3306 36.0188 34.5483 36.2365Z" fill="white"/>
<path d="M34.8279 35.6452C35.032 35.8493 35.3638 35.85 35.5595 35.6379C37.3062 33.7456 38.4576 31.3759 38.8626 28.8249C39.2951 26.1016 38.8548 23.3112 37.6048 20.8533C36.3548 18.3955 34.3593 16.396 31.9038 15.1413C29.4484 13.8866 26.6589 13.441 23.9347 13.8681C21.2105 14.2953 18.6914 15.5733 16.7378 17.5194C14.7842 19.4654 13.4964 21.9797 13.0587 24.7022C12.621 27.4247 13.0559 30.2159 14.3011 32.6761C15.4675 34.9808 17.289 36.8844 19.531 38.1512C19.7823 38.2932 20.0979 38.191 20.2298 37.9342C20.3616 37.6775 20.2596 37.3634 20.0088 37.2206C17.9628 36.0551 16.3005 34.3119 15.2337 32.2041C14.0881 29.9407 13.688 27.3728 14.0907 24.8681C14.4934 22.3634 15.6781 20.0503 17.4754 18.2599C19.2727 16.4695 21.5904 15.2937 24.0966 14.9007C26.6029 14.5078 29.1692 14.9178 31.4282 16.0721C33.6873 17.2264 35.5232 19.0659 36.6731 21.3272C37.8231 23.5884 38.2281 26.1555 37.8303 28.661C37.4599 30.9941 36.4109 33.1624 34.8198 34.8982C34.6248 35.111 34.6238 35.4411 34.8279 35.6452Z" fill="white"/>
<path d="M36.8683 33.4226C37.1076 33.5237 37.3844 33.412 37.4759 33.1689C38.2999 30.9784 38.4526 28.588 37.9088 26.3045C37.3285 23.8682 35.9855 21.6808 34.0755 20.0609C32.1655 18.441 29.7881 17.4732 27.2898 17.2986C24.9481 17.1349 22.6147 17.6759 20.5882 18.8465C20.3633 18.9764 20.2982 19.2678 20.4371 19.4874C20.5759 19.707 20.866 19.7715 21.0914 19.6423C22.9481 18.5784 25.0824 18.0873 27.2242 18.237C29.5227 18.3977 31.7098 19.288 33.467 20.7783C35.2243 22.2686 36.4598 24.2811 36.9936 26.5225C37.4911 28.6111 37.3551 30.7968 36.6086 32.8024C36.518 33.0459 36.629 33.3215 36.8683 33.4226Z" fill="white"/>
<path d="M19.0873 20.4888C18.9174 20.2923 18.6197 20.27 18.4301 20.4476C17.7689 21.0671 17.1814 21.7609 16.6795 22.5153C16.5356 22.7316 16.6067 23.0216 16.8286 23.1567C17.0504 23.2919 17.339 23.2209 17.4836 23.0051C17.9338 22.3336 18.4578 21.7147 19.0459 21.1599C19.2348 20.9816 19.2572 20.6853 19.0873 20.4888Z" fill="white"/>
<path d="M35.9326 34.651C36.1551 34.745 36.4125 34.6411 36.4976 34.4151C37.0205 33.0247 37.2552 31.5408 37.1855 30.054C37.109 28.4213 36.6674 26.8266 35.8932 25.3872C35.119 23.9478 34.0319 22.7002 32.7119 21.7364C31.5098 20.8586 30.1423 20.2364 28.694 19.9063C28.4585 19.8526 28.23 20.0102 28.1857 20.2476C28.1415 20.4851 28.2985 20.7124 28.5338 20.7669C29.8536 21.0726 31.0996 21.642 32.1961 22.4427C33.4105 23.3295 34.4106 24.4772 35.1229 25.8015C35.8351 27.1258 36.2414 28.5929 36.3119 30.0949C36.3754 31.4512 36.1637 32.8047 35.6912 34.0744C35.6069 34.3007 35.7101 34.557 35.9326 34.651Z" fill="white"/>
<path d="M34.2554 36.7476C34.4645 36.9883 34.8298 37.0147 35.0631 36.7974C36.9027 35.083 38.328 32.9688 39.2268 30.6148C40.1943 28.0809 40.5221 25.3475 40.1809 22.6567C39.8397 19.9659 38.8402 17.4008 37.2709 15.1886C35.7016 12.9763 33.6109 11.1852 31.1841 9.97396C28.7572 8.7627 26.0691 8.16865 23.3578 8.24442C20.6466 8.3202 17.9958 9.06346 15.6404 10.4084C13.285 11.7533 11.2976 13.6583 9.8543 15.9548C8.5135 18.0881 7.68069 20.4981 7.41656 22.9988C7.38307 23.3158 7.62379 23.592 7.94182 23.6143C8.25985 23.6367 8.53468 23.3968 8.569 23.0799C8.81928 20.7686 9.59204 18.5417 10.8318 16.5691C12.1741 14.4334 14.0223 12.6617 16.2129 11.411C18.4034 10.1602 20.8686 9.46897 23.3901 9.3985C25.9116 9.32803 28.4115 9.8805 30.6685 11.007C32.9255 12.1334 34.8698 13.7992 36.3293 15.8565C37.7887 17.9139 38.7183 20.2995 39.0355 22.8019C39.3528 25.3044 39.048 27.8465 38.1482 30.203C37.3171 32.3795 36.0021 34.3357 34.3055 35.9251C34.0728 36.1431 34.0463 36.5069 34.2554 36.7476Z" fill="white"/>
<path d="M34.6802 36.369C34.9057 36.5544 35.2397 36.5225 35.416 36.2898C36.4416 34.9355 37.1975 33.3947 37.6406 31.7512C38.1295 29.9374 38.2261 28.0403 37.9239 26.1862C37.6218 24.3321 36.9277 22.5638 35.8882 20.9991C34.8486 19.4345 33.4874 18.1094 31.8954 17.1124C30.3033 16.1153 28.5169 15.4691 26.6554 15.217C24.7939 14.9648 22.9 15.1124 21.1 15.65C19.3 16.1876 17.6354 17.1027 16.217 18.3344C14.9318 19.4505 13.8756 20.8033 13.105 22.3173C12.9726 22.5774 13.0897 22.8918 13.355 23.0137C13.6202 23.1357 13.933 23.0189 14.0664 22.7592C14.7737 21.3815 15.7385 20.1502 16.9102 19.1326C18.2151 17.9995 19.7466 17.1575 21.4025 16.6629C23.0585 16.1684 24.8009 16.0326 26.5135 16.2646C28.2261 16.4966 29.8695 17.091 31.3343 18.0083C32.799 18.9256 34.0513 20.1447 35.0077 21.5842C35.9641 23.0237 36.6025 24.6505 36.8805 26.3563C37.1585 28.062 37.0697 29.8074 36.6198 31.4761C36.2159 32.9744 35.5293 34.38 34.5987 35.6178C34.4233 35.8511 34.4548 36.1836 34.6802 36.369Z" fill="white"/>
</svg>
