<svg width="36" height="42" viewBox="0 0 36 42" fill="none" xmlns="http://www.w3.org/2000/svg">
<path d="M18 31.8334C19.1916 31.8334 20.1666 30.8584 20.1666 29.6667H15.8333C15.8333 30.8584 16.8083 31.8334 18 31.8334ZM24.5 25.3334V19.9167C24.5 16.5909 22.7341 13.8067 19.625 13.07V12.3334C19.625 11.4342 18.8991 10.7084 18 10.7084C17.1008 10.7084 16.375 11.4342 16.375 12.3334V13.07C13.2766 13.8067 11.5 16.58 11.5 19.9167V25.3334L9.33331 27.5V28.5834H26.6666V27.5L24.5 25.3334ZM22.3333 26.4167H13.6666V19.9167C13.6666 17.23 15.3025 15.0417 18 15.0417C20.6975 15.0417 22.3333 17.23 22.3333 19.9167V26.4167Z" fill="white"/>
<circle cx="27.5" cy="11.5" r="3.5" fill="#FFB731"/>
</svg>
