<svg width="27" height="26" viewBox="0 0 27 26" fill="none" xmlns="http://www.w3.org/2000/svg">
<path d="M3.75 3.25H12.4167V11.9167H3.75V3.25ZM5.48333 4.98333V10.1833H10.6833V4.98333H5.48333Z" fill="white"/>
<path fill-rule="evenodd" clip-rule="evenodd" d="M7 6.5H9.16667V8.66667H7V6.5Z" fill="white"/>
<path d="M14.5833 3.25H23.25V11.9167H14.5833V3.25ZM16.3166 4.98333V10.1833H21.5166V4.98333H16.3166Z" fill="white"/>
<path fill-rule="evenodd" clip-rule="evenodd" d="M17.8333 6.5H20V8.66667H17.8333V6.5Z" fill="white"/>
<path d="M3.75 14.0834H12.4167V22.75H3.75V14.0834ZM5.48333 15.8167V21.0167H10.6833V15.8167H5.48333Z" fill="white"/>
<path fill-rule="evenodd" clip-rule="evenodd" d="M7 17.3334H9.16667V19.5H7V17.3334Z" fill="white"/>
<path d="M23.25 19.2834H19.7833V22.75H14.5833V14.0834H15.45H14.5833V19.2834H16.3166V21.0167H18.05V15.8167H16.3166V14.0834H15.45H18.05V15.8167H19.7833V17.55H21.5166V14.0834H23.25V19.2834ZM23.25 21.0167V22.75H21.5166V21.0167H23.25Z" fill="white"/>
</svg>
