<svg width="41" height="29" viewBox="0 0 41 29" fill="none" xmlns="http://www.w3.org/2000/svg">
<path d="M24.4696 8.59743V27.7764H15.8721V0.992013H36.0431C37.6868 0.992013 39.0192 2.32443 39.0192 3.96805V7.60542H25.4616H24.4696V8.59743ZM3.96805 0.992013H10.2507V7.60542L0.992013 7.60542V3.96805C0.992013 2.32443 2.32443 0.992013 3.96805 0.992013ZM10.2507 16.8642H0.992013V11.9041L10.2507 11.9041V16.8642ZM0.992013 24.8003V21.1629H10.2507V27.7764H3.96805C2.32443 27.7764 0.992013 26.4439 0.992013 24.8003ZM36.0431 27.7764H30.091V21.1629H39.0192V24.8003C39.0192 26.4439 37.6867 27.7764 36.0431 27.7764ZM30.091 11.9041L39.0192 11.9041V16.8642H30.091V11.9041Z" stroke="white" stroke-width="1.98403"/>
</svg>
