<svg width="36" height="36" viewBox="0 0 36 36" fill="none" xmlns="http://www.w3.org/2000/svg">
<path d="M24.7648 26.6904C24.9381 26.8636 25.2197 26.8642 25.3858 26.6842C26.8391 25.1098 27.8074 23.1452 28.1687 21.0269C28.5549 18.7625 28.2283 16.4341 27.2342 14.3633C26.2401 12.2926 24.6274 10.5816 22.619 9.46678C20.6106 8.35198 18.3056 7.88836 16.0224 8.13997C13.7392 8.39158 11.5904 9.34601 9.873 10.8714C8.15556 12.3968 6.95419 14.4179 6.43485 16.6554C5.91551 18.893 6.10383 21.2366 6.97379 23.3626C7.78767 25.3514 9.16056 27.0579 10.9218 28.2781C11.1232 28.4176 11.3979 28.3557 11.5292 28.149V28.149C11.6606 27.9422 11.5988 27.6688 11.3979 27.5286C9.79153 26.4075 8.53913 24.8453 7.79486 23.0266C6.99449 21.0707 6.82124 18.9146 7.29903 16.856C7.77683 14.7975 8.88209 12.9381 10.4621 11.5347C12.0422 10.1313 14.019 9.25327 16.1196 9.02178C18.2201 8.7903 20.3408 9.21683 22.1885 10.2425C24.0362 11.2681 25.5198 12.8422 26.4344 14.7473C27.349 16.6524 27.6494 18.7945 27.2942 20.8777C26.9638 22.8149 26.0816 24.6123 24.758 26.0563C24.5924 26.2369 24.5916 26.5172 24.7648 26.6904V26.6904Z" fill="white"/>
<path d="M25.0701 26.362C25.2285 26.5203 25.486 26.5209 25.6379 26.3563C27.2489 24.6111 28.1991 22.3516 28.3146 19.9707C28.4367 17.4546 27.6177 14.9831 26.0172 13.0378C24.4167 11.0925 22.1494 9.81264 19.6568 9.44759C17.1643 9.08255 14.6252 9.65846 12.5341 11.0631C10.443 12.4678 8.94967 14.6006 8.34508 17.0461C7.74048 19.4916 8.06791 22.0745 9.26357 24.2918C10.4592 26.509 12.4375 28.2018 14.813 29.0402C17.0607 29.8336 19.5117 29.8084 21.7365 28.977C21.9463 28.8986 22.0432 28.66 21.9565 28.4535V28.4535C21.8698 28.247 21.6323 28.1508 21.4222 28.2285C19.3835 28.9823 17.1406 29.0017 15.0829 28.2754C12.8975 27.504 11.0775 25.9467 9.9775 23.9068C8.87749 21.8669 8.57625 19.4906 9.13248 17.2408C9.68871 14.9909 11.0626 13.0287 12.9864 11.7364C14.9102 10.4441 17.2462 9.9143 19.5393 10.2501C21.8324 10.586 23.9184 11.7634 25.3908 13.5531C26.8633 15.3428 27.6167 17.6166 27.5044 19.9314C27.3987 22.111 26.5326 24.18 25.0638 25.7823C24.9125 25.9474 24.9117 26.2036 25.0701 26.362V26.362Z" fill="white"/>
<path d="M25.2737 25.9319C25.4222 26.0804 25.6635 26.0809 25.8059 25.9266C27.0767 24.55 27.9143 22.826 28.2089 20.9701C28.5235 18.9889 28.2032 16.959 27.2939 15.1708C26.3845 13.3827 24.9328 11.9282 23.1464 11.0154C21.3601 10.1026 19.3307 9.77835 17.3489 10.0891C15.3671 10.3999 13.5344 11.3297 12.1131 12.7454C10.6919 14.1611 9.75504 15.9902 9.43663 17.9709C9.11822 19.9515 9.43461 21.9821 10.3405 23.7719C11.1891 25.4485 12.5141 26.8334 14.1452 27.755C14.328 27.8583 14.5576 27.784 14.6536 27.5972V27.5972C14.7495 27.4104 14.6753 27.1819 14.4928 27.078C13.0044 26.2301 11.795 24.9619 11.019 23.4285C10.1855 21.7819 9.89447 19.9137 10.1874 18.0916C10.4803 16.2694 11.3423 14.5866 12.6498 13.2841C13.9573 11.9816 15.6434 11.1262 17.4667 10.8403C19.29 10.5544 21.157 10.8527 22.8004 11.6925C24.4439 12.5323 25.7795 13.8705 26.6161 15.5155C27.4527 17.1606 27.7473 19.0282 27.4579 20.8509C27.1884 22.5482 26.4253 24.1257 25.2678 25.3884C25.1259 25.5432 25.1252 25.7834 25.2737 25.9319V25.9319Z" fill="white"/>
<path d="M26.7579 24.3149C26.932 24.3885 27.1334 24.3072 27.2 24.1303C27.7994 22.5368 27.9105 20.7978 27.5149 19.1365C27.0927 17.3641 26.1157 15.7728 24.7262 14.5943C23.3366 13.4158 21.6071 12.7118 19.7896 12.5847C18.086 12.4656 16.3885 12.8593 14.9142 13.7108C14.7505 13.8054 14.7032 14.0174 14.8042 14.1771V14.1771C14.9052 14.3368 15.1163 14.3837 15.2802 14.2898C16.631 13.5158 18.1837 13.1585 19.7418 13.2674C21.414 13.3843 23.0051 14.0321 24.2835 15.1162C25.5619 16.2004 26.4607 17.6645 26.8491 19.2951C27.211 20.8145 27.112 22.4047 26.569 23.8637C26.5031 24.0409 26.5838 24.2414 26.7579 24.3149V24.3149Z" fill="white"/>
<path d="M13.8223 14.9056C13.6987 14.7626 13.4821 14.7464 13.3442 14.8756C12.8631 15.3263 12.4358 15.8311 12.0706 16.3799C11.9659 16.5373 12.0177 16.7482 12.1791 16.8465V16.8465C12.3405 16.9448 12.5504 16.8932 12.6556 16.7362C12.9831 16.2477 13.3643 15.7974 13.7921 15.3938C13.9296 15.2641 13.9459 15.0486 13.8223 14.9056V14.9056Z" fill="white"/>
<path d="M26.0774 25.2085C26.2392 25.2769 26.4265 25.2013 26.4884 25.0369C26.8688 24.0254 27.0396 22.9459 26.9889 21.8642C26.9332 20.6764 26.6119 19.5163 26.0487 18.4691C25.4854 17.4219 24.6946 16.5143 23.7343 15.8131C22.8598 15.1745 21.865 14.7219 20.8113 14.4818C20.64 14.4427 20.4737 14.5573 20.4415 14.7301V14.7301C20.4094 14.9028 20.5235 15.0682 20.6947 15.1079C21.6549 15.3302 22.5614 15.7445 23.3591 16.327C24.2425 16.9721 24.9701 17.8071 25.4883 18.7705C26.0065 19.7339 26.302 20.8013 26.3533 21.894C26.3995 22.8807 26.2455 23.8653 25.9017 24.789C25.8405 24.9537 25.9155 25.1401 26.0774 25.2085V25.2085Z" fill="white"/>
<path d="M24.8572 26.7339C25.0093 26.909 25.2751 26.9282 25.4448 26.7701C26.7831 25.5229 27.82 23.9848 28.4739 22.2723C29.1778 20.4289 29.4162 18.4404 29.168 16.4828C28.9198 14.5253 28.1927 12.6591 27.051 11.0497C25.9093 9.44032 24.3884 8.13731 22.6228 7.25612C20.8573 6.37493 18.9017 5.94276 16.9293 5.99788C14.9568 6.05301 13.0284 6.59373 11.3148 7.57216C9.60127 8.55058 8.15546 9.9365 7.10546 11.6072C6.13003 13.1592 5.52416 14.9124 5.33201 16.7317C5.30765 16.9623 5.48277 17.1632 5.71414 17.1795V17.1795C5.9455 17.1957 6.14544 17.0212 6.17041 16.7906C6.35249 15.1092 6.91467 13.4892 7.81659 12.0541C8.79309 10.5004 10.1377 9.21148 11.7313 8.30155C13.3249 7.39161 15.1183 6.88874 16.9527 6.83747C18.7871 6.78621 20.6058 7.18813 22.2477 8.00763C23.8897 8.82714 25.3042 10.0389 26.3659 11.5357C27.4277 13.0324 28.1039 14.7679 28.3348 16.5884C28.5656 18.409 28.3438 20.2583 27.6892 21.9727C27.0846 23.5561 26.1279 24.9793 24.8936 26.1356C24.7244 26.2941 24.7051 26.5588 24.8572 26.7339V26.7339Z" fill="white"/>
<path d="M25.1661 26.4584C25.3302 26.5933 25.5732 26.5701 25.7014 26.4008C26.4475 25.4156 26.9975 24.2947 27.3198 23.099C27.6754 21.7795 27.7457 20.3993 27.5259 19.0505C27.3061 17.7017 26.8012 16.4152 26.0449 15.2769C25.2886 14.1386 24.2984 13.1746 23.1401 12.4493C21.9819 11.7239 20.6823 11.2538 19.3281 11.0704C17.9738 10.8869 16.596 10.9943 15.2865 11.3854C13.9771 11.7765 12.766 12.4423 11.7342 13.3384C10.7992 14.1503 10.0308 15.1344 9.47017 16.2358C9.37383 16.4251 9.45906 16.6538 9.65202 16.7425V16.7425C9.84499 16.8312 10.0726 16.7462 10.1696 16.5573C10.6841 15.5551 11.386 14.6593 12.2384 13.919C13.1877 13.0946 14.3019 12.4821 15.5066 12.1223C16.7113 11.7625 17.9789 11.6637 19.2248 11.8325C20.4707 12.0013 21.6663 12.4338 22.7319 13.1011C23.7975 13.7684 24.7085 14.6553 25.4043 15.7025C26.1001 16.7497 26.5646 17.9333 26.7668 19.1742C26.9691 20.4151 26.9044 21.6849 26.5772 22.8989C26.2833 23.9889 25.7838 25.0115 25.1068 25.912C24.9792 26.0817 25.0021 26.3235 25.1661 26.4584V26.4584Z" fill="white"/>
</svg>
