<svg width="64" height="22" viewBox="0 0 64 22" fill="none" xmlns="http://www.w3.org/2000/svg">
<path d="M33.0993 6.76309C33.0628 9.68833 35.6649 11.3208 37.6251 12.2914C39.6392 13.2873 40.3157 13.9258 40.308 14.8163C40.2926 16.1793 38.7013 16.7808 37.2119 16.8042C34.6137 16.8452 33.1031 16.0914 31.902 15.5212L30.9661 19.9716C32.171 20.5359 34.4023 21.028 36.7161 21.0495C42.1471 21.0495 45.7006 18.3254 45.7198 14.1016C45.7409 8.74124 38.4227 8.44442 38.4726 6.04838C38.4899 5.32196 39.1722 4.54671 40.6673 4.34948C41.4072 4.24989 43.4501 4.17373 45.7659 5.25751L46.6749 0.951675C45.4296 0.490824 43.8287 0.0494995 41.8358 0.0494995C36.7238 0.0494995 33.1281 2.8107 33.0993 6.76309ZM55.4095 0.420523C54.4179 0.420523 53.5819 1.0083 53.2091 1.91048L45.4507 20.7332H50.8779L51.958 17.7005H58.5901L59.2166 20.7332H64L59.8258 0.420523H55.4095ZM56.1686 5.90778L57.7349 13.5353H53.4454L56.1686 5.90778ZM26.519 0.420523L22.2411 20.7332H27.4126L31.6887 0.420523H26.519ZM18.8683 0.420523L13.4853 14.2461L11.3079 2.49045C11.0523 1.17819 10.0434 0.420523 8.92295 0.420523H0.122996L0 1.01026C1.8065 1.40862 3.85899 2.05108 5.1024 2.73845C5.86343 3.1583 6.0806 3.52541 6.33043 4.52328L10.4546 20.7332H15.9202L24.2993 0.420523H18.8683Z" fill="white"/>
</svg>
